<svg width="64" height="64" viewBox="0 0 64 64" fill="none" xmlns="http://www.w3.org/2000/svg">
<mask id="mask0_104_157" style="mask-type:luminance" maskUnits="userSpaceOnUse" x="0" y="0" width="64" height="64">
<path d="M64 0H0V64H64V0Z" fill="white"/>
</mask>
<g mask="url(#mask0_104_157)">
<path fill-rule="evenodd" clip-rule="evenodd" d="M32 10.7664C29.6876 10.7664 27.8131 12.6409 27.8131 14.9533H17.0467C17.0467 6.69482 23.7415 0 32 0C40.2586 0 46.9533 6.69482 46.9533 14.9533C46.9533 23.2117 40.2586 29.9065 32 29.9065V19.1402C34.3123 19.1402 36.1869 17.2656 36.1869 14.9533C36.1869 12.6409 34.3123 10.7664 32 10.7664ZM53.2336 32C53.2336 29.6876 51.359 27.8131 49.0467 27.8131V17.0467C57.3053 17.0467 64 23.7415 64 32C64 40.2586 57.3053 46.9533 49.0467 46.9533C40.7882 46.9533 34.0934 40.2586 34.0934 32H44.8598C44.8598 34.3123 46.7344 36.1869 49.0467 36.1869C51.359 36.1869 53.2336 34.3123 53.2336 32ZM14.9533 36.1869C12.6409 36.1869 10.7664 34.3123 10.7664 32C10.7664 29.6876 12.6409 27.8131 14.9533 27.8131C17.2656 27.8131 19.1402 29.6876 19.1402 32H29.9065C29.9065 23.7415 23.2117 17.0467 14.9533 17.0467C6.69482 17.0467 0 23.7415 0 32C0 40.2586 6.69482 46.9533 14.9533 46.9533V36.1869ZM32 53.2336C34.3123 53.2336 36.1869 51.359 36.1869 49.0467H46.9533C46.9533 57.3053 40.2586 64 32 64C23.7415 64 17.0467 57.3053 17.0467 49.0467C17.0467 40.7882 23.7415 34.0934 32 34.0934V44.8598C29.6876 44.8598 27.8131 46.7344 27.8131 49.0467C27.8131 51.359 29.6876 53.2336 32 53.2336Z" fill="#F2AE40"/>
</g>
</svg>
