<svg width="228" height="44" viewBox="0 0 228 44" fill="none" xmlns="http://www.w3.org/2000/svg">
<path d="M21.1859 14.8356L18.5474 27.2022H13.0996L15.7381 14.8356H6.0376L0 43.2867H9.65396L12.3391 30.6089H17.8334L15.1483 43.2867H24.8023L30.933 14.8356H21.1859Z" fill="white"/>
<path d="M50.9859 24.9156C49.4804 23.9978 47.2454 23.5311 44.2654 23.5311C41.2854 23.5311 39.2367 23.8578 37.4052 24.5111C35.5738 25.1645 34.1148 26.0356 33.0283 27.1245C31.9419 28.2133 31.1658 29.4578 30.7002 30.8578C30.2346 32.2578 30.0018 33.6889 30.0018 35.1511C30.0018 36.6133 30.2811 38.1222 30.8244 39.2111C31.3831 40.3 32.1281 41.1711 33.0749 41.8245C34.0217 42.4778 35.1392 42.9445 36.4274 43.2089C37.7156 43.4734 39.097 43.6133 40.587 43.6133C42.077 43.6133 42.2477 43.5822 43.1324 43.5045C44.0326 43.4267 44.9018 43.3022 45.7709 43.1467C46.6401 42.9756 47.4472 42.7733 48.2232 42.4933C48.9993 42.2289 49.6822 41.9022 50.272 41.5133L51.436 36.7222H44.1102C43.924 37.3133 43.6912 37.8578 43.3652 38.34C43.0548 38.8222 42.7289 39.2267 42.3874 39.5534C42.0459 39.88 41.7045 40.1289 41.363 40.3156C41.0216 40.5022 40.7111 40.58 40.4473 40.58C40.1834 40.58 39.8109 40.4867 39.6247 40.2845C39.4229 40.0978 39.2832 39.8489 39.1746 39.5689C39.0659 39.2889 39.0039 38.9778 38.9728 38.6511C38.9418 38.3245 38.9262 38.0289 38.9262 37.7489C38.9262 37.2667 38.9418 36.7378 38.9883 36.1311C39.0349 35.54 39.1125 34.9022 39.2367 34.2489H51.793C52.2742 33.5956 52.6311 32.7867 52.864 31.8534C53.0968 30.92 53.2209 30.0333 53.2209 29.24C53.2209 27.2645 52.4604 25.8178 50.9704 24.9L50.9859 24.9156ZM45.1191 30.0333C45.0725 30.4222 45.0259 30.78 44.9639 31.1067C44.9018 31.4956 44.8397 31.8689 44.7776 32.2267H39.6868C39.873 31.48 40.0903 30.7645 40.3542 30.0956C40.618 29.4267 40.9129 28.82 41.2544 28.3067C41.5803 27.7778 41.9528 27.3733 42.3564 27.0467C42.7599 26.72 43.1945 26.58 43.6756 26.58C44.1568 26.58 44.4517 26.7511 44.7466 27.0778C45.0415 27.4045 45.1967 28.0267 45.1967 28.96C45.1967 29.8933 45.1811 29.6445 45.1346 30.0333H45.1191Z" fill="white"/>
<path d="M59.8483 13.1868L53.5003 43.2868H62.6266L69.0211 13.1868H59.8483Z" fill="white"/>
<path d="M66.5999 43.2867H75.6795L79.8391 24.0289H70.6663L66.5999 43.2867Z" fill="white"/>
<path d="M79.7926 15.5045C78.9855 14.9445 78.0077 14.6489 76.8436 14.6489C75.6795 14.6489 75.5554 14.7423 74.9501 14.9134C74.3448 15.1 73.8015 15.3489 73.3359 15.6911C72.8703 16.0334 72.5133 16.4689 72.2339 16.9978C71.9701 17.5267 71.8304 18.1178 71.8304 18.7711C71.8304 20 72.2339 20.8867 73.041 21.4623C73.8481 22.0223 74.8414 22.3178 76.0365 22.3178C77.2316 22.3178 77.2782 22.2245 77.868 22.0534C78.4578 21.8667 78.9855 21.6023 79.4511 21.2445C79.9167 20.8867 80.2892 20.4511 80.5686 19.9378C80.848 19.4245 80.9877 18.8334 80.9877 18.1489C80.9877 16.9511 80.5841 16.08 79.7771 15.5045H79.7926Z" fill="white"/>
<path d="M100.265 22.9245C100.233 23.4222 100.202 23.9045 100.156 24.3867C100.109 24.8689 100.078 25.2578 100.047 25.5534H108.087L109.701 17.2156C109.142 16.92 108.506 16.6089 107.808 16.2822C107.109 15.9556 106.318 15.6445 105.433 15.3645C104.548 15.0845 103.57 14.8511 102.484 14.6645C101.398 14.4778 100.202 14.4 98.8832 14.4C96.1049 14.4 93.6527 14.8667 91.5108 15.7845C89.3689 16.7178 87.5685 17.9778 86.1095 19.5645C84.6506 21.1667 83.5486 23.0334 82.8036 25.1645C82.0586 27.2956 81.6861 29.5822 81.6861 31.9934C81.6861 36.1778 82.7726 39.1645 84.93 40.9534C87.0873 42.7423 90.1605 43.6445 94.1649 43.6445C98.1692 43.6445 96.5706 43.5667 97.626 43.4267C98.6814 43.2711 99.6592 43.0689 100.559 42.82C101.46 42.5711 102.298 42.26 103.089 41.9178C103.881 41.5756 104.641 41.2178 105.386 40.86L107.171 32.3978H98.8987C98.2468 35.3534 97.4863 37.4067 96.6171 38.5578C95.748 39.7089 94.8633 40.2845 93.932 40.2845C93.0008 40.2845 92.9697 40.1289 92.6593 39.8334C92.3489 39.5378 92.1161 39.18 91.9609 38.76C91.8057 38.34 91.7281 37.9045 91.697 37.4534C91.666 37.0022 91.6505 36.6289 91.6505 36.3334C91.6505 35.3222 91.7126 34.14 91.8522 32.7867C91.9919 31.4489 92.1782 30.08 92.4265 28.68C92.6748 27.2956 93.0008 25.9267 93.3888 24.5734C93.7768 23.2356 94.2269 22.0222 94.7236 20.9645C95.2358 19.9067 95.8101 19.0511 96.4464 18.4134C97.0828 17.7756 97.7967 17.4489 98.5728 17.4489C99.3488 17.4489 99.3178 17.5422 99.5816 17.7445C99.8299 17.9467 100.016 18.18 100.14 18.4911C100.265 18.7867 100.327 19.0978 100.358 19.4089C100.389 19.72 100.404 20 100.404 20.2334C100.404 20.4667 100.404 20.9645 100.358 21.4467C100.327 21.9289 100.296 22.4111 100.265 22.9089V22.9245Z" fill="white"/>
<path d="M132.129 24.9001C131.12 24.1067 129.832 23.7178 128.28 23.7178C126.728 23.7178 126.231 23.8889 125.377 24.2156C124.508 24.5423 123.763 24.9156 123.142 25.3356C122.397 25.8178 121.745 26.3312 121.171 26.9067H120.861L123.763 13.2023H114.606L108.258 43.3023H117.384L120.333 29.4112C120.597 29.1156 120.985 28.7734 121.466 28.3845C121.963 27.9956 122.475 27.8089 123.003 27.8089C123.53 27.8089 123.779 27.9489 124.011 28.2289C124.229 28.5089 124.353 28.8823 124.353 29.3334C124.353 29.7845 124.306 30.0334 124.213 30.4378C124.12 30.8423 124.043 31.2312 123.996 31.6201L121.544 43.3178H130.623L132.501 34.5756C132.594 34.0934 132.703 33.5645 132.843 32.9889C132.983 32.4134 133.107 31.8223 133.215 31.2467C133.339 30.6712 133.433 30.1112 133.526 29.5823C133.619 29.0534 133.665 28.5867 133.665 28.1667C133.665 26.7978 133.153 25.7089 132.144 24.9156L132.129 24.9001Z" fill="white"/>
<path d="M156.388 24.9156C154.882 23.9978 152.647 23.5311 149.667 23.5311C146.687 23.5311 144.639 23.8578 142.807 24.5111C140.976 25.1645 139.517 26.0356 138.43 27.1245C137.344 28.2133 136.568 29.4578 136.102 30.8578C135.637 32.2578 135.404 33.6889 135.404 35.1511C135.404 36.6133 135.683 38.1222 136.226 39.2111C136.785 40.3 137.53 41.1711 138.477 41.8245C139.424 42.4778 140.541 42.9445 141.829 43.2089C143.118 43.4734 144.499 43.6133 145.989 43.6133C147.479 43.6133 147.65 43.5822 148.534 43.5045C149.435 43.4267 150.304 43.3022 151.173 43.1467C152.042 42.9756 152.849 42.7733 153.625 42.4933C154.401 42.2289 155.084 41.9022 155.674 41.5133L156.838 36.7222H149.512C149.326 37.3133 149.093 37.8578 148.767 38.34C148.457 38.8222 148.131 39.2267 147.789 39.5534C147.448 39.88 147.106 40.1289 146.765 40.3156C146.424 40.5022 146.113 40.58 145.849 40.58C145.585 40.58 145.213 40.4867 145.027 40.2845C144.825 40.0978 144.685 39.8489 144.577 39.5689C144.468 39.2889 144.406 38.9778 144.375 38.6511C144.344 38.3245 144.328 38.0289 144.328 37.7489C144.328 37.2667 144.344 36.7378 144.39 36.1311C144.437 35.54 144.514 34.9022 144.639 34.2489H157.195C157.676 33.5956 158.033 32.7867 158.266 31.8534C158.499 30.92 158.623 30.0333 158.623 29.24C158.623 27.2645 157.862 25.8178 156.372 24.9L156.388 24.9156ZM150.521 30.0333C150.474 30.4222 150.428 30.78 150.366 31.1067C150.304 31.4956 150.242 31.8689 150.18 32.2267H145.089C145.275 31.48 145.492 30.7645 145.756 30.0956C146.02 29.4267 146.315 28.82 146.656 28.3067C146.982 27.7778 147.355 27.3733 147.758 27.0467C148.162 26.72 148.596 26.58 149.078 26.58C149.559 26.58 149.854 26.7511 150.149 27.0778C150.443 27.4045 150.599 28.0267 150.599 28.96C150.599 29.8933 150.583 29.6445 150.537 30.0333H150.521Z" fill="white"/>
<path d="M174.858 31.8689H180.942L182.199 26.1289C181.268 25.0245 180.104 24.3089 178.66 23.9978C177.217 23.6867 175.541 23.5311 173.616 23.5311C171.691 23.5311 169.177 23.8267 167.454 24.4333C165.731 25.0245 164.304 25.8489 163.186 26.8911C162.069 27.9333 161.23 29.1467 160.687 30.5467C160.128 31.9311 159.865 33.44 159.865 35.0422C159.865 36.6445 160.128 37.92 160.672 39.0089C161.215 40.0978 161.96 40.9845 162.907 41.6689C163.853 42.3533 164.986 42.8511 166.275 43.1622C167.578 43.4733 168.991 43.6289 170.543 43.6289C172.095 43.6289 173.88 43.52 175.261 43.2867C176.643 43.0534 177.962 42.6956 179.219 42.1822L180.523 35.8667H174.128C173.942 36.7067 173.694 37.4222 173.368 38.0133C173.042 38.6045 172.7 39.1022 172.343 39.4756C171.986 39.8489 171.614 40.1289 171.226 40.3C170.838 40.4867 170.496 40.5645 170.201 40.5645C169.907 40.5645 169.627 40.4711 169.441 40.3C169.255 40.1133 169.115 39.88 169.022 39.5845C168.913 39.2889 168.851 38.9622 168.82 38.62C168.789 38.2778 168.774 37.9356 168.774 37.6089C168.774 36.7067 168.867 35.6333 169.068 34.3578C169.255 33.0822 169.565 31.8845 169.969 30.7333C170.372 29.5822 170.884 28.6022 171.505 27.7778C172.126 26.9533 172.855 26.5489 173.694 26.5489C174.532 26.5489 174.516 26.7511 174.718 27.1556C174.92 27.56 175.028 28.2445 175.028 29.1933C175.028 30.1422 175.028 30.1111 174.982 30.5C174.951 30.8889 174.92 31.34 174.889 31.8378L174.858 31.8689Z" fill="white"/>
<path d="M204.099 24.029L193.684 32.1801L197.704 13.1868H188.547L182.199 43.2868H191.31L193.188 34.2801L197.751 43.2868H207.762L201.103 31.3245L208.29 25.4912L204.099 24.029Z" fill="white"/>
<path d="M195.966 8.33336C197.347 8.83114 198.868 8.13114 199.365 6.74669C199.862 5.36225 199.163 3.83781 197.782 3.34003C196.401 2.84225 194.88 3.54225 194.383 4.92669C193.886 6.31114 194.585 7.83558 195.966 8.33336ZM195.78 5.44003C195.997 4.83336 196.664 4.53781 197.254 4.75558C197.844 4.97336 198.154 5.64225 197.937 6.23336C197.72 6.82447 197.052 7.13558 196.463 6.9178C195.857 6.70003 195.562 6.03114 195.78 5.44003Z" fill="white"/>
<path d="M202.019 2.2045L213.148 5.9845C213.365 6.06228 213.644 6.1245 213.799 5.9845C213.97 5.82895 214.141 5.34673 214.11 5.12895C214.094 4.91117 213.831 4.78672 213.613 4.70895L202.671 0.415611C202.174 0.228945 201.631 0.493391 201.445 0.991169C201.259 1.48895 201.522 2.03339 202.019 2.22006V2.2045Z" fill="white"/>
<path d="M220.861 24.9C220.784 25.1334 220.567 25.8023 220.38 25.9423C220.21 26.0823 219.79 25.9423 219.558 25.88C218.983 25.7089 218.425 25.4756 217.866 25.2734L202.826 19.7667C201.585 19.3156 200.871 21.2445 202.128 21.6956L217.912 27.4667C218.813 27.7934 219.791 28.1823 220.768 27.9645C221.963 27.7156 222.305 26.5956 222.677 25.5689C223.127 24.3245 221.312 23.6245 220.846 24.8689L220.861 24.9Z" fill="white"/>
<path d="M217.121 10.1223L215.646 9.57785C215.724 9.50007 215.786 9.42229 215.817 9.31341C215.957 8.95563 215.755 8.55119 215.398 8.41119L214.948 8.24007L215.941 5.48674C216.05 5.17563 215.895 4.8334 215.584 4.70896C215.274 4.60007 214.932 4.75563 214.808 5.06674L213.815 7.82007L213.442 7.68007C213.086 7.54007 212.682 7.7423 212.542 8.10007C212.511 8.20896 212.496 8.3023 212.511 8.41119L212.403 8.38007C210.385 7.64896 208.538 7.13563 206.846 8.1934L199.924 5.17563C200.032 5.73563 199.986 6.32674 199.784 6.88674C199.582 7.43118 199.256 7.88229 198.853 8.22452C200.591 9.14229 202.997 12.5179 203.556 13.6845C204.859 16.3756 205.061 19.3467 208.01 20.4201L217.369 23.8423C220.815 25.1023 222.833 22.1156 222.91 18.1801C222.988 14.509 220.567 11.3667 217.121 10.1067V10.1223ZM218.021 19.7201L214.374 18.3823C212.558 17.7134 212.589 15.8001 213.241 13.9956C213.893 12.1912 214.948 11.1801 216.764 11.8334L217.835 12.2223C219.651 12.8912 221.11 15.0223 221.218 16.9512C221.358 19.129 219.837 20.3734 218.021 19.7201Z" fill="white"/>
<path d="M226.433 9.08002L217.167 5.98446C216.95 5.90669 216.671 5.82891 216.516 5.98446C216.36 6.14002 216.174 6.62224 216.205 6.84002C216.236 7.0578 216.485 7.18224 216.702 7.26002L225.782 10.8689C226.278 11.0556 226.821 10.7911 227.008 10.2933C227.194 9.79557 226.93 9.23557 226.433 9.06446V9.08002Z" fill="white"/>
</svg>
