<svg width="76" height="69" viewBox="0 0 76 69" fill="none" xmlns="http://www.w3.org/2000/svg">
<path d="M7.43128 32.59C10.753 32.6649 13.517 30.0741 13.5919 26.7524C13.6668 23.4306 11.0759 20.6667 7.75421 20.5918C4.43248 20.5169 1.66851 23.1077 1.59362 26.4294C1.51872 29.7512 4.10955 32.5151 7.43128 32.59ZM4.9598 26.5265C4.99187 25.0712 6.21293 23.9592 7.63495 24.0024C9.05697 24.0456 10.2023 25.2555 10.1591 26.6776C10.1159 28.0996 8.90594 29.2449 7.48392 29.2017C6.02858 29.1696 4.91659 27.9485 4.9598 26.5265Z" fill="#D8A126"/>
<path d="M15.9266 12.4259L41.8713 12.8234C42.3807 12.8397 43.0084 12.7792 43.2312 12.3688C43.4752 11.9139 43.4834 10.754 43.2615 10.3056C43.072 9.84638 42.4318 9.76179 41.9223 9.74546L15.9959 8.11006C14.825 8.05355 13.8825 9.00321 13.8531 10.2075C13.8237 11.4118 14.767 12.403 15.9379 12.4595L15.9266 12.4259Z" fill="#D8A126"/>
<path d="M69.3059 47.9945C69.3087 48.5549 69.3276 50.1574 69.0304 50.5935C68.7664 51.0185 67.7686 51.0153 67.2256 51.0472C65.8733 51.0877 64.5092 50.9824 63.1676 50.9445L27.0105 49.7864C24.028 49.6983 23.8957 54.3822 26.9114 54.4591L64.8536 55.6566C67.0156 55.7195 69.3888 55.8616 71.3231 54.6912C73.6998 53.298 73.6202 50.6307 73.6745 48.143C73.7374 45.1287 69.3463 44.9129 69.2502 47.9383L69.3059 47.9945Z" fill="#D8A126"/>
<path d="M48.9392 20.1899L45.4772 20.0787C45.5849 19.8615 45.6601 19.6552 45.6487 19.4053C45.6899 18.558 44.985 17.8513 44.1411 17.8073L43.0808 17.763L43.2273 11.2993C43.2363 10.5714 42.6723 9.96262 41.9366 9.91864C41.2117 9.90725 40.6073 10.4717 40.5659 11.2104L40.4194 17.6742L39.5431 17.641C38.6992 17.5969 37.9978 18.3025 37.9566 19.1499C37.968 19.3997 38.0009 19.6062 38.1096 19.8235L37.8609 19.8342C33.1332 19.7113 28.9147 19.9255 26.1212 23.3238L9.5446 21.8343C10.1639 22.932 10.4807 24.2033 10.4515 25.5178C10.4114 26.7997 10.0464 27.9727 9.44306 28.9717C13.7179 29.6809 21.1088 35.0747 23.0935 37.1293C27.7027 41.8584 30.2057 47.9438 37.1187 48.1335L59.0698 48.7687C67.1513 49.0027 69.2744 41.3345 66.6795 33.0327C64.2698 25.2852 57.0098 20.3913 48.9283 20.1573L48.9392 20.1899ZM57.5438 39.6747L48.9863 39.4186C44.7237 39.2852 43.4482 35.2538 43.546 31.017C43.6438 26.7803 45.1405 23.9242 49.3921 24.0251L51.902 24.0921C56.1646 24.2255 60.7057 27.6726 62.284 31.639C64.1015 36.1053 61.7955 39.7755 57.5438 39.6747Z" fill="#D8A126"/>
<path d="M64.7389 9.55399L43.184 9.62787C42.675 9.61886 42.0359 9.65332 41.8185 10.0844C41.6011 10.5154 41.545 11.6451 41.7609 12.0747C41.9768 12.5043 42.5832 12.5883 43.0923 12.5973L64.6126 13.7176C65.7824 13.7566 66.7371 12.8282 66.7825 11.6662C66.8278 10.5043 65.8871 9.52854 64.7282 9.52175L64.7389 9.55399Z" fill="#D8A126"/>
</svg>
